HIERARCHY
ROOT Hips
{
	OFFSET 0.000000 0.000000 0.000000
	CHANNELS 6 Xposition Yposition Zposition Xrotation Yrotation Zrotation
	JOINT LeftUpLeg_virtual
	{
		OFFSET 0.000000 0.000000 0.000000
		CHANNELS 3 Xrotation Yrotation Zrotation
		JOINT LeftUpLeg
		{
			OFFSET 13.026900 -6.336304 -1.092800
			CHANNELS 3 Xrotation Yrotation Zrotation
			JOINT LeftLeg
			{
				OFFSET 0.524474 -46.096886 9.782700
				CHANNELS 3 Xrotation Yrotation Zrotation
				JOINT LeftFoot
				{
					OFFSET -0.524474 -53.427422 -12.948200
					CHANNELS 3 Xrotation Yrotation Zrotation
					JOINT LeftToeBase
					{
						OFFSET 0.192200 -14.009700 16.364100
						CHANNELS 3 Xrotation Yrotation Zrotation
						JOINT LeftToe_End
						{
							OFFSET -1.784700 -0.561700 9.474800
							CHANNELS 3 Xrotation Yrotation Zrotation
							End Site
							{
								OFFSET 0 0 0
							}
						}
					}
				}
			}
		}
	}
	JOINT RightUpLeg_virtual
	{
		OFFSET 0.000000 0.000000 0.000000
		CHANNELS 3 Xrotation Yrotation Zrotation
		JOINT RightUpLeg
		{
			OFFSET -12.883000 -6.336304 -1.092800
			CHANNELS 3 Xrotation Yrotation Zrotation
			JOINT RightLeg
			{
				OFFSET -0.524587 -46.096825 9.782800
				CHANNELS 3 Xrotation Yrotation Zrotation
				JOINT RightFoot
				{
					OFFSET 0.524587 -53.427383 -12.948300
					CHANNELS 3 Xrotation Yrotation Zrotation
					JOINT RightToeBase
					{
						OFFSET -0.192200 -14.009700 16.364100
						CHANNELS 3 Xrotation Yrotation Zrotation
						JOINT RightToe_End
						{
							OFFSET 1.784700 -0.561700 9.474800
							CHANNELS 3 Xrotation Yrotation Zrotation
							End Site
							{
								OFFSET 0 0 0
							}
						}
					}
				}
			}
		}
	}
	JOINT Spine_virtual
	{
		OFFSET 0.000000 0.000000 0.000000
		CHANNELS 3 Xrotation Yrotation Zrotation
		JOINT Spine
		{
			OFFSET 0.072000 7.257294 -0.789700
			CHANNELS 3 Xrotation Yrotation Zrotation
			JOINT Spine1
			{
				OFFSET 0.000000 12.508769 -0.658067
				CHANNELS 3 Xrotation Yrotation Zrotation
				JOINT Spine1_split
				{
					OFFSET 0.000000 12.508769 -0.658067
					CHANNELS 3 Xrotation Yrotation Zrotation
					JOINT Spine2
					{
						OFFSET 0.000000 12.508769 -0.658067
						CHANNELS 3 Xrotation Yrotation Zrotation
						JOINT Neck_virtual
						{
							OFFSET 0.000000 0.000000 0.000000
							CHANNELS 3 Xrotation Yrotation Zrotation
							JOINT Neck
							{
								OFFSET 0.000000 14.033295 7.520400
								CHANNELS 3 Xrotation Yrotation Zrotation
								JOINT Head
								{
									OFFSET 0.000000 8.198502 5.703100
									CHANNELS 3 Xrotation Yrotation Zrotation
									JOINT HeadTop_End
									{
										OFFSET 0.000000 17.760803 13.332701
										CHANNELS 3 Xrotation Yrotation Zrotation
										End Site
										{
											OFFSET 0 0 0
										}
									}
								}
							}
						}
						JOINT LeftShoulder_virtual
						{
							OFFSET 0.000000 0.000000 0.000000
							CHANNELS 3 Xrotation Yrotation Zrotation
							JOINT LeftShoulder
							{
								OFFSET 6.292450 5.785301 -0.669000
								CHANNELS 3 Xrotation Yrotation Zrotation
								JOINT LeftShoulder_split
								{
									OFFSET 6.292450 5.785301 -0.669000
									CHANNELS 3 Xrotation Yrotation Zrotation
									JOINT LeftArm
									{
										OFFSET 13.907140 -6.093903 1.965100
										CHANNELS 3 Xrotation Yrotation Zrotation
										JOINT LeftForeArm
										{
											OFFSET 34.140198 0.000000 0.000000
											CHANNELS 3 Xrotation Yrotation Zrotation
											JOINT LeftHand
											{
												OFFSET 40.960209 0.000000 0.000000
												CHANNELS 3 Xrotation Yrotation Zrotation
												End Site
												{
													OFFSET 0 0 0
												}
											}
										}
									}
								}
							}
						}
						JOINT RightShoulder_virtual
						{
							OFFSET 0.000000 0.000000 0.000000
							CHANNELS 3 Xrotation Yrotation Zrotation
							JOINT RightShoulder
							{
								OFFSET -6.292450 5.785301 -0.669000
								CHANNELS 3 Xrotation Yrotation Zrotation
								JOINT RightShoulder_split
								{
									OFFSET -6.292450 5.785301 -0.669000
									CHANNELS 3 Xrotation Yrotation Zrotation
									JOINT RightArm
									{
										OFFSET -13.907140 -6.093903 1.965100
										CHANNELS 3 Xrotation Yrotation Zrotation
										JOINT RightForeArm
										{
											OFFSET -34.140198 0.000000 0.000000
											CHANNELS 3 Xrotation Yrotation Zrotation
											JOINT RightHand
											{
												OFFSET -40.960209 0.000000 0.000000
												CHANNELS 3 Xrotation Yrotation Zrotation
												End Site
												{
													OFFSET 0 0 0
												}
											}
										}
									}
								}
							}
						}
					}
				}
			}
		}
	}
}
MOTION
Frames: 11
Frame Time: 0.03333333
20.918049 109.256668 -16.996380 0.000000 0.000000 0.000000 22.495809 -1.144657 3.014867 -61.619883 9.935605 20.053739 83.593469 2.602745 -6.999227 9.610191 -18.420452 15.986589 -47.590613 -1.057683 -4.192991 0.000000 0.000000 0.000000 15.330812 -4.481008 5.499957 -33.033114 -21.477677 -26.053815 33.084658 11.349923 0.077112 0.486729 -21.340048 20.807572 17.599306 0.819168 -22.879809 0.000000 0.000000 0.000000 21.641174 -4.365653 6.329235 26.145776 1.650410 -16.278330 -6.275087 -4.250995 9.408713 0.521545 0.904546 -0.128089 0.000000 0.000000 0.000000 -9.439778 -1.755886 9.897157 -31.315458 6.229765 12.529553 -43.259242 -83.531670 -3.442821 0.000000 0.000000 0.000000 -7.478318 -2.928471 6.907930 5.777623 -10.175505 21.588387 3.832429 -4.753673 -6.795277 -79.734023 10.527302 -11.157031 -105.392449 -70.362109 -92.405226 0.000000 0.000000 0.000000 -2.352051 -0.335944 9.130587 4.729214 -0.555266 -18.092452 -5.846633 -4.957953 13.139915 -26.596050 -17.271510 37.999935 -42.709450 53.371587 35.318584 0.000000 0.000000 0.000000 
18.838200 110.231209 -1.564610 0.000000 0.000000 0.000000 21.525201 -3.205886 2.836702 -64.870555 11.267098 20.456355 65.543083 8.010108 -7.570648 7.020353 -17.918521 15.859254 -42.384882 -0.187264 -5.344978 0.000000 0.000000 0.000000 17.251149 -9.255624 6.361476 -25.624419 -23.286943 -24.855420 26.365025 9.603333 1.173677 4.958427 -17.895299 25.928739 12.533749 2.221833 -22.856023 0.000000 0.000000 0.000000 24.228083 -5.406411 5.909824 26.061739 2.972312 -15.725134 -6.053085 -3.881017 9.135608 0.440839 1.316824 -0.281622 0.000000 0.000000 0.000000 -9.263635 -1.591812 9.814447 -31.074653 6.235380 12.425164 -52.892520 -80.816390 -12.678649 0.000000 0.000000 0.000000 -7.565936 -2.599082 6.891605 5.497675 -8.736556 19.633497 3.133667 -1.644060 -6.021544 -78.645236 12.029771 -7.138735 -114.691854 -69.752617 -102.262979 0.000000 0.000000 0.000000 -2.827189 -0.008810 8.618068 5.287736 3.415763 -18.185910 -8.430763 -1.314935 7.590728 -29.656729 -9.141906 37.313412 -56.170687 63.044825 48.132507 0.000000 0.000000 0.000000 
16.184032 112.790787 16.014019 0.000000 0.000000 0.000000 20.637849 -5.392950 3.785270 -64.444358 13.178003 19.987922 41.915508 14.088904 -5.010912 7.027219 -15.078280 13.274866 -32.360781 -0.292113 -5.065578 0.000000 0.000000 0.000000 19.264692 -12.529576 7.827524 -13.918868 -22.610265 -22.197068 14.556402 6.252631 1.874736 13.307984 -13.799485 30.558362 3.568866 3.944569 -17.996983 0.000000 0.000000 0.000000 25.673030 -6.432590 5.875961 26.506332 4.308543 -14.835926 -6.011489 -3.193355 8.082585 0.283197 1.218637 -0.376985 0.000000 0.000000 0.000000 -9.102895 -0.971901 8.924870 -30.061213 6.593016 12.538574 -55.731338 -75.368173 -14.388973 0.000000 0.000000 0.000000 -7.743550 -1.904948 6.108199 4.852776 -7.632326 15.697248 1.616830 1.383579 -4.682742 -74.203592 16.754510 -2.079887 -130.334394 -69.062522 -119.003383 0.000000 0.000000 0.000000 -3.454347 0.659672 7.319044 6.484853 8.670387 -17.904263 -7.251618 0.451417 2.368296 -30.676555 1.238420 36.860554 -73.596490 70.359944 64.777637 0.000000 0.000000 0.000000 
14.461190 115.214951 33.122261 0.000000 0.000000 0.000000 19.461461 -6.473194 5.483492 -61.243663 15.695052 18.727211 22.662368 17.035620 -0.721878 9.290049 -11.115124 8.559170 -19.142068 -0.808932 -3.630435 0.000000 0.000000 0.000000 20.661307 -13.592125 9.499646 -1.763667 -19.707276 -19.403307 1.837635 1.655629 1.403114 22.379431 -11.302404 32.601418 -8.551707 4.297294 -9.646066 0.000000 0.000000 0.000000 24.343855 -6.154245 6.195176 27.716064 5.162219 -13.791204 -6.041187 -2.580858 6.489897 0.237833 0.846083 -0.332102 0.000000 0.000000 0.000000 -8.828984 -0.223287 7.354814 -28.517290 7.393027 12.721168 -54.449015 -67.933246 -11.433240 0.000000 0.000000 0.000000 -7.822026 -1.183025 4.672784 4.031322 -7.210145 10.274747 1.207080 3.031564 -2.832231 -67.075873 23.726011 0.416587 -147.858473 -67.321650 -138.288368 0.000000 0.000000 0.000000 -4.045340 1.267437 5.446027 7.662487 14.099519 -16.321929 -3.148666 -0.897089 -0.374190 -28.965087 10.161467 36.352217 -85.754480 74.885470 76.039834 0.000000 0.000000 0.000000 
13.133879 116.850906 50.495567 0.000000 0.000000 0.000000 17.595913 -6.904526 7.781924 -57.306551 19.721205 17.551498 11.813644 18.068017 2.263953 11.506495 -7.530557 4.568381 -7.397094 -1.071069 -1.509706 0.000000 0.000000 0.000000 21.210181 -12.701734 10.825933 5.965478 -15.800814 -17.981545 -4.842294 -3.375218 0.016090 29.564969 -11.147138 32.768034 -18.828579 2.472099 -1.148133 0.000000 0.000000 0.000000 20.678965 -3.578294 6.782675 29.889318 5.113822 -12.637636 -6.019663 -2.286225 4.493823 0.028647 0.649497 -0.062652 0.000000 0.000000 0.000000 -8.321226 0.308948 5.293857 -27.309292 8.592116 12.751589 -52.034208 -58.667329 -6.681959 0.000000 0.000000 0.000000 -7.745032 -0.762773 2.765922 3.140544 -8.023346 4.320619 3.058615 3.278963 -0.061333 -57.860342 30.828434 -1.891743 -162.669670 -65.100753 -155.567599 0.000000 0.000000 0.000000 -4.549170 1.362755 3.242352 8.263077 18.579691 -12.919514 0.437284 -3.684822 -0.702011 -24.859450 14.484683 35.953300 -82.311054 78.219162 71.685888 0.000000 0.000000 0.000000 
12.348765 117.249672 66.699066 0.000000 0.000000 0.000000 15.655244 -8.395768 10.343235 -51.750537 24.568687 16.267573 8.854597 17.355082 3.183209 12.698419 -5.411722 2.866281 -3.311056 -1.014163 1.083594 0.000000 0.000000 0.000000 20.249308 -10.394785 11.616606 6.326695 -11.809395 -18.470090 -0.489058 -7.972447 -0.672903 33.222358 -12.082350 32.768201 -23.445847 0.054599 4.464334 0.000000 0.000000 0.000000 15.758746 -0.677848 8.216343 32.759452 4.157808 -11.333563 -5.894253 -2.501532 2.274181 -0.153772 0.490255 0.187723 0.000000 0.000000 0.000000 -7.850850 0.315211 2.955105 -26.918371 9.965506 12.516161 -49.415022 -47.139138 -0.796640 0.000000 0.000000 0.000000 -7.342420 -0.955480 0.761947 2.167281 -9.978020 -0.881281 6.311684 2.312845 2.502104 -48.095610 35.126785 -9.055842 -173.184419 -63.778722 -169.031841 0.000000 0.000000 0.000000 -4.968815 0.683348 1.048309 7.839222 20.793442 -7.808528 2.880155 -6.293256 1.385061 -19.378505 12.495961 36.491795 -60.450309 79.678043 49.175549 0.000000 0.000000 0.000000 
11.619604 116.253235 81.163612 0.000000 0.000000 0.000000 13.954894 -10.308552 12.587250 -44.821805 27.948029 14.088076 12.055811 14.569488 2.771980 12.210522 -4.212105 0.900982 -4.902361 -0.581061 2.709212 0.000000 0.000000 0.000000 18.266796 -6.395022 11.923052 -1.128586 -8.089517 -20.505302 17.378653 -10.919439 1.367417 31.895860 -12.189700 34.437308 -20.431942 -1.184298 5.563650 0.000000 0.000000 0.000000 11.004699 2.294882 9.685042 35.641174 2.599813 -9.312799 -5.709681 -3.384949 0.179740 -0.232485 0.466837 0.352146 0.000000 0.000000 0.000000 -7.249922 -0.311051 0.614882 -27.112062 11.476818 12.148478 -48.194850 -32.988222 4.851709 0.000000 0.000000 0.000000 -6.668843 -1.844226 -0.949041 1.216958 -12.488268 -4.516087 9.823447 1.355176 3.796606 -40.440512 35.369223 -17.940259 179.654165 -64.223005 -179.443358 0.000000 0.000000 0.000000 -5.375083 -0.777948 -0.908930 6.516724 19.940462 -2.178270 4.771938 -7.012846 3.783550 -13.216262 4.397975 39.279137 -37.697668 78.525496 26.049518 0.000000 0.000000 0.000000 
10.438093 114.176666 94.849792 0.000000 0.000000 0.000000 12.319968 -11.079057 13.608699 -35.089646 29.415009 10.695076 17.411219 12.264261 1.870060 7.610875 -1.962370 0.935153 -8.036465 0.161675 2.604096 0.000000 0.000000 0.000000 15.163525 -1.489793 11.489968 -15.713692 -3.694540 -22.614869 44.678272 -10.775727 5.234520 25.899157 -11.061970 36.420416 -9.680913 -0.773447 1.751271 0.000000 0.000000 0.000000 8.686435 4.592762 10.530170 37.565211 0.907929 -6.007999 -5.421495 -4.815131 -1.540342 -0.291085 0.563394 0.465968 0.000000 0.000000 0.000000 -6.525069 -1.564609 -1.477576 -27.400887 12.791579 11.682661 -49.349370 -16.440149 9.603126 0.000000 0.000000 0.000000 -5.784493 -3.308420 -2.014259 0.489888 -14.939548 -6.169596 12.430684 0.032176 3.191238 -37.627201 32.475459 -24.775844 175.722299 -66.936790 173.433611 0.000000 0.000000 0.000000 -5.553108 -2.820552 -2.448423 5.180254 16.001192 2.353976 4.803750 -5.400590 4.916240 -5.290805 -7.168648 44.573241 -28.518441 77.635181 17.088408 0.000000 0.000000 0.000000 
9.420450 111.466019 108.764893 0.000000 0.000000 0.000000 11.093422 -9.160972 12.932516 -22.820729 28.708624 7.118600 20.794467 10.675260 0.811597 -0.982136 1.274317 2.109967 -9.329502 0.973778 1.352901 0.000000 0.000000 0.000000 12.093434 2.125075 10.712613 -33.853443 1.736663 -22.942503 68.013029 -8.770135 7.958010 18.003844 -8.903351 37.614326 5.073206 -0.441960 -5.621503 0.000000 0.000000 0.000000 8.886442 4.579915 10.348893 37.685302 -0.572385 -1.242258 -5.168521 -6.681733 -2.568585 -0.083672 0.776068 0.314972 0.000000 0.000000 0.000000 -5.906330 -3.317969 -3.050509 -27.063800 13.581928 11.365367 -52.556567 1.821778 13.725339 0.000000 0.000000 0.000000 -4.729742 -5.290198 -2.231565 0.248141 -16.902372 -5.700458 13.013549 -0.837894 0.604185 -39.504482 28.227317 -27.776851 176.751622 -72.064404 171.593449 0.000000 0.000000 0.000000 -5.191988 -5.178969 -3.309007 4.314680 9.777339 4.822955 3.950846 -1.376168 4.644009 5.843680 -19.172462 52.418495 -29.513404 77.819023 18.994327 0.000000 0.000000 0.000000 
8.418598 108.955475 122.968018 0.000000 0.000000 0.000000 10.603090 -4.854026 11.196136 -10.897306 25.749591 5.149769 20.244056 8.728299 -0.006931 -9.393423 4.462332 -0.022108 -6.542058 1.600468 -0.670333 0.000000 0.000000 0.000000 10.087801 3.718878 9.703342 -50.760689 7.167458 -19.841988 77.214298 -7.802334 8.640187 11.646445 -5.563438 37.828839 18.158473 -1.357723 -13.482544 0.000000 0.000000 0.000000 11.270710 3.876246 9.153850 35.796355 -1.920592 4.367745 -5.113454 -8.875482 -2.841349 0.202087 1.218798 0.044429 0.000000 0.000000 0.000000 -5.209908 -5.380197 -3.958086 -25.665856 13.626706 11.517642 -57.724415 21.311623 18.139954 0.000000 0.000000 0.000000 -3.693470 -7.625595 -1.732297 0.554025 -18.032481 -3.615469 11.515971 -0.724739 -2.137915 -43.668370 24.518950 -26.779736 -169.410971 -79.031217 -177.108130 0.000000 0.000000 0.000000 -4.337413 -7.616200 -3.462287 3.846339 2.540191 5.008146 3.222230 3.577195 3.566562 19.421716 -28.345644 60.580745 -43.461723 78.959050 34.381192 0.000000 0.000000 0.000000 
7.805436 107.214798 137.875366 0.000000 0.000000 0.000000 10.304510 0.707338 8.935583 -0.878087 21.517615 5.600133 16.198565 5.272815 -1.133362 -12.100339 6.784637 -7.707614 -5.056123 1.655382 -1.767800 0.000000 0.000000 0.000000 9.335370 3.767407 8.501861 -63.053895 11.660313 -13.735309 70.217767 -8.425387 7.260451 9.810573 -0.717590 36.241711 26.856866 -2.513687 -19.192084 0.000000 0.000000 0.000000 14.749582 2.792072 7.750108 32.155380 -3.386353 9.813589 -5.165412 -11.054521 -2.535602 0.373696 1.456882 -0.097778 0.000000 0.000000 0.000000 -4.448486 -7.587294 -4.079260 -23.073118 12.875711 12.315576 -64.476180 40.490639 23.996743 0.000000 0.000000 0.000000 -2.742154 -9.977424 -0.825852 1.196848 -18.242086 -0.582433 8.246849 0.548819 -4.372738 -47.731408 22.226518 -22.543697 -104.640308 -82.813346 -114.507138 0.000000 0.000000 0.000000 -3.232936 -9.897699 -2.872667 3.496382 -4.348463 3.719085 2.215332 7.036426 1.792899 31.096902 -34.487155 65.725818 -73.665605 78.392745 66.005862 0.000000 0.000000 0.000000 
